<?xml version="1.0" encoding="UTF-8" standalone="no"?>
<!DOCTYPE svg PUBLIC "-//W3C//DTD SVG 1.1//EN"
 "http://www.w3.org/Graphics/SVG/1.1/DTD/svg11.dtd">
<!-- Generated by graphviz version 2.43.0 (0)
 -->
<!-- Title: viewstructure Pages: 1 -->
<svg width="220pt" height="116pt"
 viewBox="0.00 0.00 220.49 116.00" xmlns="http://www.w3.org/2000/svg" xmlns:xlink="http://www.w3.org/1999/xlink">
<g id="graph0" class="graph" transform="scale(1 1) rotate(0) translate(4 112)">
<title>viewstructure</title>
<polygon fill="white" stroke="transparent" points="-4,4 -4,-112 216.49,-112 216.49,4 -4,4"/>
<!-- ZCML -->
<g id="node1" class="node">
<title>ZCML</title>
<ellipse fill="none" stroke="black" cx="100.55" cy="-90" rx="38.99" ry="18"/>
<text text-anchor="middle" x="100.55" y="-86.3" font-family="Times,serif" font-size="14.00">ZCML</text>
</g>
<!-- Python -->
<g id="node2" class="node">
<title>Python</title>
<ellipse fill="none" stroke="black" cx="43.55" cy="-18" rx="43.59" ry="18"/>
<text text-anchor="middle" x="43.55" y="-14.3" font-family="Times,serif" font-size="14.00">Python</text>
</g>
<!-- ZCML&#45;&gt;Python -->
<g id="edge1" class="edge">
<title>ZCML&#45;&gt;Python</title>
<path fill="none" stroke="black" d="M87.33,-72.76C80.23,-64.06 71.35,-53.15 63.44,-43.43"/>
<polygon fill="black" stroke="black" points="66.12,-41.18 57.09,-35.63 60.69,-45.6 66.12,-41.18"/>
</g>
<!-- Template -->
<g id="node3" class="node">
<title>Template</title>
<ellipse fill="none" stroke="black" cx="158.55" cy="-18" rx="53.89" ry="18"/>
<text text-anchor="middle" x="158.55" y="-14.3" font-family="Times,serif" font-size="14.00">Template</text>
</g>
<!-- ZCML&#45;&gt;Template -->
<g id="edge2" class="edge">
<title>ZCML&#45;&gt;Template</title>
<path fill="none" stroke="black" d="M114,-72.76C121.21,-64.06 130.25,-53.15 138.3,-43.43"/>
<polygon fill="black" stroke="black" points="141.08,-45.57 144.76,-35.63 135.69,-41.1 141.08,-45.57"/>
</g>
</g>
</svg>
